<?xml version="1.0" standalone="no"?>
<!DOCTYPE svg PUBLIC "-//W3C//DTD SVG 20010904//EN"
 "http://www.w3.org/TR/2001/REC-SVG-20010904/DTD/svg10.dtd">
<svg version="1.0" xmlns="http://www.w3.org/2000/svg"
 width="320.000000pt" height="300.000000pt" viewBox="0 0 320.000000 300.000000"
 preserveAspectRatio="xMidYMid meet">

<g transform="translate(0.000000,300.000000) scale(0.100000,-0.100000)"
fill="#000000" stroke="none">
<path d="M1214 2545 c-3 -8 13 -59 37 -115 36 -86 46 -100 66 -100 30 0 29 18
-1 78 -13 26 -29 65 -36 87 -7 22 -17 46 -23 53 -13 16 -36 15 -43 -3z"/>
<path d="M1933 2538 c-4 -7 -25 -53 -46 -103 -35 -83 -37 -91 -20 -102 9 -7
20 -10 24 -6 17 19 90 203 84 213 -9 14 -32 13 -42 -2z"/>
<path d="M1434 2236 c-18 -8 -35 -19 -38 -25 -4 -6 -37 -11 -77 -11 -73 0 -95
-7 -141 -45 -15 -13 -47 -25 -76 -29 -62 -8 -122 -50 -147 -102 -10 -22 -31
-55 -47 -76 -40 -52 -58 -100 -58 -158 0 -58 15 -90 94 -200 71 -101 131 -133
249 -136 l81 -2 11 -36 c13 -46 57 -101 96 -122 42 -21 102 -19 173 5 33 12
65 21 73 21 7 0 36 -16 64 -35 57 -39 119 -47 150 -19 16 15 20 13 54 -20 85
-85 197 -99 271 -33 47 41 64 76 71 150 4 42 13 72 29 92 70 92 85 217 39 321
-14 31 -25 69 -25 84 0 81 -39 138 -118 174 -26 12 -45 30 -55 52 -25 52 -98
94 -163 94 -37 0 -65 7 -99 26 -43 25 -54 26 -123 21 -56 -4 -84 -2 -102 8
-32 18 -145 18 -186 1z m175 -46 c38 -17 53 -19 75 -10 58 22 132 6 166 -35
10 -12 23 -14 56 -9 24 3 58 1 78 -6 36 -12 90 -64 100 -98 4 -11 25 -27 50
-36 65 -25 90 -57 92 -119 1 -33 12 -74 29 -110 23 -51 27 -68 23 -132 -3 -68
-7 -79 -46 -135 -36 -52 -42 -69 -42 -111 0 -61 -19 -109 -55 -137 -85 -67
-217 -10 -258 113 -10 29 -20 41 -37 43 -28 5 -40 -12 -40 -59 0 -62 -21 -67
-88 -20 -66 47 -86 49 -167 21 -84 -29 -127 -26 -168 10 -45 39 -61 79 -54
136 7 68 56 113 139 128 39 7 55 28 34 46 -10 7 -27 8 -60 0 -79 -18 -134 -63
-157 -130 -13 -37 -40 -45 -117 -36 -71 8 -130 43 -168 98 -16 24 -43 62 -61
86 -57 76 -54 147 9 233 18 24 40 61 50 81 22 49 70 78 130 78 37 0 50 5 62
21 36 53 101 72 162 49 22 -9 31 -7 48 9 58 54 134 65 215 31z"/>
<path d="M1693 2108 c-6 -7 -13 -31 -16 -53 -5 -31 -16 -49 -48 -77 -66 -57
-36 -89 38 -41 32 21 65 95 61 139 -3 40 -18 53 -35 32z"/>
<path d="M1460 2058 c-46 -32 -71 -68 -77 -114 -8 -62 25 -100 131 -155 115
-58 131 -79 127 -171 -1 -38 -65 -100 -119 -116 -30 -9 -42 -18 -42 -31 0 -26
20 -31 63 -16 110 38 173 138 147 234 -16 62 -56 100 -145 141 -93 43 -109 59
-109 107 0 36 17 56 85 104 25 17 19 39 -10 39 -10 0 -33 -10 -51 -22z"/>
<path d="M1220 2051 c0 -10 7 -24 16 -32 21 -17 44 -63 44 -88 0 -29 -46 -78
-85 -93 -23 -8 -35 -19 -35 -30 0 -43 56 -30 119 27 43 39 57 77 46 131 -12
65 -105 141 -105 85z"/>
<path d="M1874 2027 c-9 -26 2 -34 65 -46 61 -12 101 -43 116 -91 3 -11 15
-20 26 -20 32 0 25 53 -13 96 -37 42 -72 59 -140 69 -39 6 -49 4 -54 -8z"/>
<path d="M1065 1935 c-56 -37 -77 -70 -83 -126 -6 -63 2 -92 38 -133 49 -55
162 -68 208 -23 26 27 5 36 -66 30 -62 -5 -70 -3 -96 19 -22 19 -30 35 -33 74
-4 43 -2 54 21 81 14 17 44 38 67 47 29 12 39 21 37 34 -5 27 -49 26 -93 -3z"/>
<path d="M1785 1912 c-38 -24 -58 -48 -50 -62 10 -16 34 -12 62 10 53 41 123
9 123 -58 0 -40 -31 -62 -88 -62 -39 0 -43 -2 -40 -22 3 -21 8 -23 62 -23 53
1 61 4 87 33 33 37 39 94 14 142 -30 57 -112 77 -170 42z"/>
<path d="M1330 1758 c-19 -13 -35 -29 -38 -35 -6 -20 28 -28 52 -13 11 7 35
16 51 20 21 4 31 12 33 28 3 19 -1 22 -31 22 -19 0 -49 -10 -67 -22z"/>
<path d="M1783 1651 c-62 -39 -78 -103 -43 -171 35 -68 74 -46 45 24 -22 51
-12 83 29 102 29 14 37 15 62 2 28 -13 29 -17 29 -78 0 -54 3 -65 17 -68 23
-4 38 34 38 93 0 35 -6 52 -28 76 -37 41 -102 50 -149 20z"/>
<path d="M1973 1394 c-13 -34 98 -105 117 -74 12 19 1 39 -25 46 -13 3 -31 14
-41 25 -21 23 -43 25 -51 3z"/>
<path d="M647 2073 c-4 -3 -7 -14 -7 -23 0 -24 127 -75 146 -59 25 21 15 34
-48 62 -66 28 -80 31 -91 20z"/>
<path d="M2453 2047 c-61 -26 -73 -35 -73 -54 0 -30 7 -29 96 8 53 22 74 36
74 49 0 29 -21 29 -97 -3z"/>
<path d="M828 1378 c-94 -39 -118 -61 -83 -74 15 -6 188 58 213 79 11 9 11 13
-4 24 -23 17 -14 19 -126 -29z"/>
<path d="M2366 1363 c-3 -4 -6 -15 -6 -25 0 -13 18 -27 63 -47 92 -41 108 -45
118 -30 15 24 10 29 -58 60 -95 43 -110 49 -117 42z"/>
<path d="M1220 1241 c0 -14 49 -50 89 -67 19 -8 118 -40 219 -70 225 -68 232
-71 232 -101 0 -38 -17 -36 -241 33 -192 59 -245 66 -274 34 -18 -20 -18 -21
8 -47 16 -17 100 -56 228 -108 184 -73 242 -105 192 -105 -10 0 -47 9 -83 20
-126 39 -250 70 -280 70 -34 0 -45 -17 -36 -54 5 -19 33 -35 163 -91 87 -37
166 -72 177 -77 36 -19 0 -27 -64 -14 -36 7 -90 16 -120 20 -30 4 -65 10 -77
13 -18 4 -23 1 -23 -16 0 -32 47 -130 72 -151 44 -37 149 -19 195 32 18 20 18
21 -12 16 -16 -3 -46 -12 -65 -21 -49 -21 -95 -4 -124 45 -11 20 -17 40 -13
44 4 4 54 0 110 -9 122 -21 147 -21 172 -4 13 10 16 21 12 39 -5 19 -24 32
-94 62 -49 20 -120 51 -158 68 -64 27 -142 76 -105 66 350 -100 361 -103 388
-87 33 18 39 50 15 71 -10 8 -105 50 -212 92 -198 79 -231 95 -231 109 0 12
37 3 245 -59 99 -30 192 -54 207 -54 60 0 91 81 44 118 -13 10 -127 49 -253
87 -125 37 -245 76 -265 87 -21 10 -38 14 -38 9z"/>
</g>
</svg>
